{"title":"Geordie Shore Complete Season 4 (2012) WEB-DL","uid":11730187,"size":4170269380,"categoryP":"video","categoryS":"tv_shows","magnet":"?xt=urn:btih:4278830b7eb4a900853f1dbd2155ddc822133858&amp;dn=Geordie+Shore+Complete+Season+4+%282012%29+WEB-DL&amp;tr=udp%3A%2F%2Ftracker.openbittorrent.com%3A80&amp;tr=udp%3A%2F%2Fopen.demonii.com%3A1337&amp;tr=udp%3A%2F%2Ftracker.coppersurfer.tk%3A6969&amp;tr=udp%3A%2F%2Fexodus.desync.com%3A6969","seeders":4,"leechers":2,"uploader":"jmanwf","files":16,"time":1425368868,"description":"\nDescription\nAfter a fun filled summer in Cancun, the Geordie Shore gang are back in their playground and they are back with a bang. With two new spaces in the house it can only mean one thing, fresh meet for the family . They are all back for more obscene nights out as they are ready to take Newcastle by storm. Holly continues to chase James around the house, Ricci and Vicky do what they can to make sure they make it down the aisle whilst Charlotte has some big news that will keep Gary on his toes.\n\n\n\nVideo\nID : 2\nFormat : AVC\nFormat/Info : Advanced Video Codec\nFormat profile : &lt;a class=&quot;__cf_email__&quot; href=&quot;/cdn-cgi/l/email-protection&quot; data-cfemail=&quot;a0e8c9c7c8e0ec948e90&quot;&gt;[email&amp;#160;protected]&lt;/a&gt;&lt;script cf-hash='f9e31' type=&quot;text/javascript&quot;&gt;\n/* &lt;![CDATA[ */!function(){try{var t=&quot;currentScript&quot;in document?document.currentScript:function(){for(var t=document.getElementsByTagName(&quot;script&quot;),e=t.length;e--;)if(t[e].getAttribute(&quot;cf-hash&quot;))return t[e]}();if(t&amp;&amp;t.previousSibling){var e,r,n,i,c=t.previousSibling,a=c.getAttribute(&quot;data-cfemail&quot;);if(a){for(e=&quot;&quot;,r=parseInt(a.substr(0,2),16),n=2;a.length-n;n+=2)i=parseInt(a.substr(n,2),16)^r,e+=String.fromCharCode(i);e=document.createTextNode(e),c.parentNode.replaceChild(e,c)}}}catch(u){}}();/* ]]&gt; */&lt;/script&gt;\nFormat settings, CABAC : Yes\nFormat settings, ReFrames : 4 frames\nCodec ID : avc1\nCodec ID/Info : Advanced Video Coding\nDuration : 42mn 27s\nBit rate : 4 643 Kbps\nWidth : 1 920 pixels\nHeight : 1 080 pixels\nDisplay aspect ratio : 16:9\nFrame rate mode : Constant\nFrame rate : 25.000 fps\nColor space : YUV\nChroma subsampling : 4:2:0\nBit depth : 8 bits\nScan type : Progressive\nBits/(Pixel*Frame) : 0.090\nStream size : 1.38 GiB (97%)\nLanguage : English\nEncoded date : UTC 2015-02-26 09:19:05\nTagged date : UTC 2015-02-26 09:21:51\nColor primaries : BT.709\nTransfer characteristics : BT.709\nMatrix coefficients : BT.709\nColor range : Limited\n\nAudio\nID : 1\nFormat : AAC\nFormat/Info : Advanced Audio Codec\nFormat profile : LC\nCodec ID : 40\nDuration : 42mn 27s\nBit rate mode : Variable\nBit rate : 126 Kbps\nMaximum bit rate : 193 Kbps\nChannel(s) : 2 channels\nChannel positions : Front: L R\nSampling rate : 48.0 KHz\nCompression mode : Lossy\nStream size : 38.1 MiB (3%)\nLanguage : English\nEncoded date : UTC 2015-02-26 09:19:05\nTagged date : UTC 2015-02-26 09:21:51\n\nText\nID : 3-CC1\nFormat : EIA-608\nMuxing mode : Final Cut\nCodec ID : c608\nDuration : 42mn 27s\nBit rate mode : Constant\nStream size : 0.00 Byte (0%)\nLanguage : English\nEncoded date : UTC 2015-02-26 09:19:05\nTagged date : UTC 2015-02-26 09:19:39\n\nALL 8 Episodes of Season 4\n\n\n\n\nALL Have English Subtitles\n\n\n\n\nALL In MP4\n\n\n\n &lt;a href=&quot;\nhttps://itunes.apple.com/au/tv-season/geordie-shore-season-4/id574404863&quot; rel=&quot;nofollow&quot; target=&quot;_NEW&quot;&gt;\nhttps://itunes.apple.com/au/tv-season/geordie-shore-season-4/id574404863&lt;/a&gt;","torrent":{"xt":"urn:btih:4278830b7eb4a900853f1dbd2155ddc822133858","amp;dn":"Geordie+Shore+Complete+Season+4+%282012%29+WEB-DL","amp;tr":["udp%3A%2F%2Ftracker.openbittorrent.com%3A80","udp%3A%2F%2Fopen.demonii.com%3A1337","udp%3A%2F%2Ftracker.coppersurfer.tk%3A6969","udp%3A%2F%2Fexodus.desync.com%3A6969"],"infoHash":"4278830b7eb4a900853f1dbd2155ddc822133858","infoHashBuffer":{"type":"Buffer","data":[66,120,131,11,126,180,169,0,133,63,29,189,33,85,221,200,34,19,56,88]},"announce":[],"urlList":[]}}